<svg width="32" height="32" viewBox="0 0 32 32" fill="none" xmlns="http://www.w3.org/2000/svg">
<mask id="mask0" mask-type="alpha" maskUnits="userSpaceOnUse" x="3" y="2" width="27" height="28">
<path d="M29.9644 2H3.00098V30H29.9644V2Z" fill="white"/>
</mask>
<g mask="url(#mask0)">
<path fill-rule="evenodd" clip-rule="evenodd" d="M12.1482 5.03597C13.0474 5.9343 13.853 7.03014 14.5647 8.32348C15.0368 9.18114 16.1153 9.49414 16.9738 9.0226C17.2421 8.87523 17.4677 8.66099 17.6286 8.40073C19.0515 6.09845 20.2254 4.48535 21.1503 3.56144C23.061 1.6526 26.3536 1.93455 28.1411 3.72022C29.9285 5.50589 30.2029 8.80309 28.3 10.7041C27.3261 11.677 25.5779 12.9312 23.0553 14.4667V14.4667C22.2186 14.9759 21.9536 16.0663 22.4634 16.9021C22.6052 17.1346 22.7987 17.3313 23.0288 17.477C25.8905 19.2883 27.6966 20.569 28.4474 21.319C29.8696 22.7399 30.5865 25.9632 28.2665 28.281C25.9465 30.5987 22.6542 29.8169 21.2976 28.4617C20.6069 27.7716 19.3963 26.0749 17.6659 23.3715V23.3715C17.1381 22.5469 16.0411 22.3059 15.2158 22.8332C14.9633 22.9945 14.7558 23.217 14.6128 23.4801C13.8999 24.7908 13.0861 25.903 12.1714 26.8168C9.879 29.1069 6.71103 28.9267 4.81034 27.0279C2.90965 25.1291 2.74069 21.9528 5.02166 19.6741C5.83828 18.8583 6.81704 18.1214 7.95794 17.4635V17.4635C8.80642 16.9742 9.09721 15.8904 8.60744 15.0428C8.4514 14.7727 8.22681 14.5486 7.95634 14.393C6.79115 13.7227 5.8052 12.9846 4.99849 12.1786C2.77247 9.95482 2.81735 6.76683 4.81034 4.84801C6.80333 2.92919 9.86337 2.75337 12.1482 5.03597Z" fill="url(#paint0_linear)"/>
<path fill-rule="evenodd" clip-rule="evenodd" d="M15.9574 10.9646C17.8277 8.29202 19.2396 5.47027 21.1503 3.56144C23.061 1.6526 26.3537 1.93455 28.1411 3.72022C29.9285 5.50588 30.203 8.80309 28.3001 10.7041C27.3262 11.677 25.5779 12.9312 23.0553 14.4667V14.4667C22.2187 14.9759 21.9537 16.0663 22.4634 16.9021C22.6052 17.1346 22.7987 17.3313 23.0289 17.477C25.8905 19.2883 27.6967 20.569 28.4474 21.319C23.5563 17.0011 18.6478 18.5593 16.4998 20.8584C14.3518 23.1575 14.4638 24.5266 12.1714 26.8168C9.87904 29.1069 6.71107 28.9267 4.81038 27.0279C2.90969 25.1291 2.74073 21.9528 5.0217 19.6741C5.83832 18.8583 6.81708 18.1214 7.95798 17.4635V17.4635C8.80647 16.9742 9.09726 15.8904 8.60748 15.0428C8.45144 14.7727 8.22685 14.5486 7.95638 14.393C6.79119 13.7227 5.80525 12.9846 4.99853 12.1786C10.2738 16.6426 14.0872 13.6372 15.9574 10.9646Z" fill="url(#paint1_linear)"/>
<path fill-rule="evenodd" clip-rule="evenodd" d="M4.58824 17.6887C5.54586 17.5713 6.17647 16.7743 6.17647 16.102C6.17647 15.4298 5.46539 14.6174 4.58824 14.5154C3.71108 14.4134 3 15.2257 3 16.102C3 16.9783 3.63061 17.8061 4.58824 17.6887Z" fill="url(#paint2_linear)"/>
</g>
<defs>
<linearGradient id="paint0_linear" x1="5.72135" y1="4.63032" x2="28.8081" y2="27.7399" gradientUnits="userSpaceOnUse">
<stop stop-color="#3C25C9"/>
<stop offset="0.47951" stop-color="#190885"/>
<stop offset="1" stop-color="#2D15BD"/>
</linearGradient>
<linearGradient id="paint1_linear" x1="28.6448" y1="4.83876" x2="5.64485" y2="27.8615" gradientUnits="userSpaceOnUse">
<stop stop-color="#2C5AFF"/>
<stop offset="1" stop-color="#0632D1"/>
</linearGradient>
<linearGradient id="paint2_linear" x1="4.58824" y1="14.5067" x2="4.58824" y2="17.6999" gradientUnits="userSpaceOnUse">
<stop stop-color="#2C5AFF"/>
<stop offset="1" stop-color="#0632D1"/>
</linearGradient>
</defs>
</svg>
